# xmcd
#
# Track frame offsets: 
#        150
#        18713
#        38327
#        56056
#        72414
#        89429
#        109265
#        124313
#        139067
#        156164
#        181482
#        200025
#
# Disc length: 3034 seconds
#
# Revision: 0
# Processed by: cddbd v1.5.2PL0 Copyright (c) Steve Scherf et al.
# Submitted via: ExactAudioCopy v0.99pb3
#
DISCID=b10bd80c
DTITLE=Emory Quinn - Letting Go
DYEAR=2006
DGENRE=Country
TTITLE0=Change
TTITLE1=Bring Me Down
TTITLE2=All You Ever Do
TTITLE3=Good Times
TTITLE4=Three Day Weekend
TTITLE5=Casey Please
TTITLE6=Downtown San Antone
TTITLE7=Come Around
TTITLE8=Letting Go
TTITLE9=Ride (Run Fast Run Free)
TTITLE10=Leave
TTITLE11=Goodnight and Goodbye
EXTD=
EXTT0=
EXTT1=
EXTT2=
EXTT3=
EXTT4=
EXTT5=
EXTT6=
EXTT7=
EXTT8=
EXTT9=
EXTT10=
EXTT11=
PLAYORDER=
